<?xml version="1.0" encoding="utf-8"?>
<!-- Generator: Adobe Illustrator 27.5.0, SVG Export Plug-In . SVG Version: 6.00 Build 0)  -->
<svg version="1.1" xmlns="http://www.w3.org/2000/svg" xmlns:xlink="http://www.w3.org/1999/xlink" x="0px" y="0px"
	 viewBox="0 0 2200 2200" style="enable-background:new 0 0 2200 2200;" xml:space="preserve">
<g id="background">
	<rect style="fill:none;" width="2200" height="2200"/>
</g>
<g id="Objects">
	<g>
		<g>
			<path style="fill:#26A9D1;" d="M1640.259,1234.449c0,298.374-241.885,540.259-540.259,540.259s-540.259-241.885-540.259-540.259
				c0-455.979,540.259-988.674,540.259-988.674S1640.259,778.471,1640.259,1234.449z"/>
			<g>
				<path style="fill:#FFFFFF;" d="M722.802,1065.593c-0.652,77.403,14.541,158.628,46.919,228.131
					c29.186,62.171,73.084,112.853,133.921,142.262c2.365,1.094,6.106,2.82,8.359,3.873c33.021,15.342,47.353,54.549,32.01,87.57
					c-15.342,33.021-54.549,47.353-87.57,32.01c-5.325-2.474-10.163-5.568-14.47-9.157c-2.916-2.449-8.617-7.306-11.479-9.715
					c-7.458-6.639-16.026-14.583-22.912-21.797c-86.562-87.996-117.645-212.267-110.022-332.134
					c1.843-31.188,5.918-61.767,12.37-92.134c2.163-10.042,4.504-19.946,7.402-29.854c0.433-1.481,1.985-2.331,3.467-1.898
					C722.07,1063.124,722.874,1064.325,722.802,1065.593L722.802,1065.593z"/>
				<path style="fill:#FFFFFF;" d="M1150.641,1588.603c-5.625,39.146-41.913,66.31-81.059,60.685
					c-39.136-5.625-79.448-43.801-73.823-82.937c5.625-39.136,55.051-64.422,94.196-58.797
					C1129.092,1513.179,1156.266,1549.468,1150.641,1588.603z"/>
			</g>
		</g>
	</g>
</g>
</svg>
